<?xml version="1.0" encoding="UTF-8" standalone="no"?>
<!-- Created with Inkscape (http://www.inkscape.org/) -->

<svg
   xmlns:dc="http://purl.org/dc/elements/1.1/"
   xmlns:cc="http://creativecommons.org/ns#"
   xmlns:rdf="http://www.w3.org/1999/02/22-rdf-syntax-ns#"
   xmlns:svg="http://www.w3.org/2000/svg"
   xmlns="http://www.w3.org/2000/svg"
   xmlns:sodipodi="http://sodipodi.sourceforge.net/DTD/sodipodi-0.dtd"
   xmlns:inkscape="http://www.inkscape.org/namespaces/inkscape"
   width="192"
   height="192"
   viewBox="0 0 50.799999 50.799999"
   version="1.1"
   id="svg273"
   inkscape:version="0.92.3 (2405546, 2018-03-11)"
   sodipodi:docname="superflu_pnc.svg">
  <defs
     id="defs267" />
  <sodipodi:namedview
     id="base"
     pagecolor="#ffffff"
     bordercolor="#666666"
     borderopacity="1.0"
     inkscape:pageopacity="0.0"
     inkscape:pageshadow="2"
     inkscape:zoom="1.4"
     inkscape:cx="10.251339"
     inkscape:cy="209.34916"
     inkscape:document-units="mm"
     inkscape:current-layer="layer1"
     showgrid="false"
     fit-margin-top="0"
     fit-margin-left="0"
     fit-margin-right="0"
     fit-margin-bottom="0"
     units="px"
     inkscape:window-width="1920"
     inkscape:window-height="1028"
     inkscape:window-x="0"
     inkscape:window-y="27"
     inkscape:window-maximized="1" />
  <metadata
     id="metadata270">
    <rdf:RDF>
      <cc:Work
         rdf:about="">
        <dc:format>image/svg+xml</dc:format>
        <dc:type
           rdf:resource="http://purl.org/dc/dcmitype/StillImage" />
        <dc:title></dc:title>
      </cc:Work>
    </rdf:RDF>
  </metadata>
  <g
     inkscape:label="Calque 1"
     inkscape:groupmode="layer"
     id="layer1"
     transform="translate(-62.290477,-110.73334)">
    <g
       id="g224"
       transform="translate(62.395071,-135.71422)">
      <circle
         r="23.283333"
         transform="scale(-1,1)"
         cy="271.84756"
         cx="-25.316891"
         id="circle942"
         style="color:#000000;clip-rule:nonzero;display:inline;overflow:visible;visibility:visible;opacity:1;isolation:auto;mix-blend-mode:normal;color-interpolation:sRGB;color-interpolation-filters:linearRGB;solid-color:#000000;solid-opacity:1;vector-effect:none;fill:#cab533;fill-opacity:1;fill-rule:nonzero;stroke:none;stroke-width:1.40043962;stroke-linecap:butt;stroke-linejoin:miter;stroke-miterlimit:4;stroke-dasharray:none;stroke-dashoffset:0;stroke-opacity:1;marker:none;color-rendering:auto;image-rendering:auto;shape-rendering:auto;text-rendering:auto;enable-background:accumulate" />
      <g
         style="display:inline;stroke-width:3.50340104"
         id="g946"
         transform="matrix(0.05836897,0,0,0.05836885,-50.221511,274.4818)">
        <path
           inkscape:connector-curvature="0"
           id="path944"
           d="m 1692.625,-196.3125 c -39.6657,18.11376 -79.9613,39.73038 -124.7499,39.60985 -62.668,1.80767 -123.4581,-20.64167 -186.1876,-16.60985 -21.9635,1.9692 -44.2088,6.19246 -64.2813,15.46875 -2.678,1.21651 -4.6875,4.99764 -6.5624,5.9375 -25.472,-22.35767 -60.6251,-28.58188 -93.5,-31.40625 -22.5449,-1.38119 -46.4084,3.21572 -65.1563,15.3125 -14.6721,-20.35949 -41.4051,-26.15129 -65.1563,-26.84375 -54.1737,-1.09365 -105.3405,22.87044 -148.40244,53.90067 -25.13035,18.56729 -49.7689,39.51032 -65.31626,67.00558 -8.80874,16.469329 -10.97027,38.963022 1.84375,53.96875 12.60476,15.8673138 33.00881,22.194376 52.0625,26.6875 -26.38788,7.649933 -53.3608,22.792058 -64.9375,48.71875 -6.50286,14.496548 -4.51747,33.031018 7.40625,44.15625 18.92942,20.02805 48.2514,24.65121 74.71875,25.1875 39.42698,0.35301 78.85775,-6.61846 116.20275,-18.93467 25.985,-9.306785 52.878,-24.020966 65.6722,-49.56533 4.3264,-9.660908 5.5512,-21.127986 1.5938,-31.125 9.6206,-1.692357 18.6754,-5.861726 26.5,-11.6875 -4.385,24.823948 -15.2453,48.800289 -32.3438,67.5 -5.8449,7.430178 -6.3633,19.56029 1.75,25.625 7.2072,6.49946 17.4986,4.7313 25.9864,2.49185 15.2792,-2.66865 31.5851,-6.29268 43.4512,-16.7731 3.9026,-5.694912 5.669,-12.527844 6.4687,-19.34375 12.8179,19.392669 37.2033,28.84369 60.0313,26.03125 24.5182,-1.136382 49.8524,-2.509193 72.7812,-11.75 12.5321,-5.116505 18.2107,-18.339644 20.5,-30.84375 1.2691,-6.415955 0.5381,-13.33001 -0.9062,-19.4375 1.8775,-2.637842 3.1342,-6.340088 3.875,-9.03125 7.3373,18.523892 17.4365,35.840458 30.3869,50.983204 16.3355,21.187806 37.7097,41.714506 65.2693,45.954296 22.8864,2.26136 46.4984,-8.27495 60.1562,-26.59375 17.2546,19.26042 44.8829,24.36915 69.7813,24.4375 19.2425,0.48667 39.0238,-3.24608 55.3437,-13.84375 0.5945,-15.670838 20.6036,-23.388955 19.5313,-39.78125 0.7164,-1.880673 -1.4593,-4.504302 -1.0625,-5.59375 29.6833,-14.968417 56.2462,-40.234123 65.8125,-72.90625 8.5537,-34.529194 7.9995,-70.552378 7.5407,-105.90447 -0.8065,-12.10286 -0.9242,-25.29527 -7.2907,-35.93928 -3.9326,-5.06255 -11.904,-6.37903 -16.75,-6.875 4.1334,-9.85731 8.0622,-22.55589 1.5,-32.1875 -3.3327,-3.93096 -8.3853,-6.41622 -13.5625,-6 z m -604.5,60.15625 c -17.747,10.85443 -36.6383,21.21863 -57.4556,24.26281 -13.9558,3.12951 -28.5955,5.47652 -41.1694,12.42469 -12.02344,13.665234 -23.6703,30.835097 -22.0625,49.8125 3.68538,10.98922 18.20482,13.042376 27.67315,8.799974 23.30635,-3.971884 46.77285,-8.246839 68.98315,-16.424974 -1.9882,13.67215 -1.6568,27.96136 2.3124,41.21875 -46.8507,-12.771778 -95.97332,-16.866816 -141.62495,-33.75 1.42058,-17.009134 15.49021,-29.481569 27.71875,-39.84375 27.80425,-22.67292 61.4606,-38.55883 97.0799,-43.94733 13.2856,-2.26441 26.8078,-3.36867 40.3263,-3.58392 -0.5937,0.34375 -1.1874,0.6875 -1.7812,1.03125 z m 130.9688,4.5625 c 19.1901,0.43592 41.1322,2.54756 54.6562,17.40625 2.8782,10.46768 -7.4918,19.555444 -17,21.375 -13.0529,5.153542 -27.4383,7.035549 -41.5625,6.625 0.3608,-15.09239 0.6943,-30.46607 -3.0313,-45.1875 2.3138,-0.026 4.6285,-0.0642 6.9376,-0.21875 z m 452.6874,9.21875 c -4.2896,11.49513 -1.7252,24.175282 3.0313,35.125 4.4007,17.308929 2.151,35.894289 -0.066,53.450241 -4.6595,21.899552 -20.5529,40.0185445 -38.0585,53.268509 -10.3435,7.207525 -23.2437,12.503072 -35.8125,11.09375 1.494,-11.146535 5.6765,-22.1315115 8.1711,-33.2040866 8.7999,-31.5818904 17.2493,-63.3579194 28.8635,-94.0519334 2.9431,-6.14269 6.3984,-12.40341 6.3404,-19.40023 9.4222,-1.80906 18.9012,-3.69446 27.8438,-7.21875 l -0.3126,0.9375 z m -241.2187,1.9375 c -1.6061,2.75336 -1.9621,6.14991 -2.875,9.03125 -2.6517,-3.35911 -5.7292,-6.37147 -9.1875,-8.90625 4.0095,-0.0993 8.1063,-0.0943 12.0625,-0.125 z m 66.1563,7.4375 c 20.1773,3.12467 40.5903,4.61772 61,5.71875 -22.8745,17.083969 -50.64,30.224583 -79.75,29.375 -1.7739,-11.033027 2.0113,-22.28072 10.0885,-30.01231 2.7313,-2.25724 4.429,-7.1785 8.6615,-5.08144 z m -333.4063,9.84375 c -0.3661,1.88063 2.8193,8.024822 -1.0937,5.96875 -13.3501,-3.41962 -28.5821,2.449631 -36.0938,13.5625 -2.7315,-1.310083 -5.5283,-2.308462 -8.4375,-3.09375 7.5817,-5.247038 14.7811,-11.663229 22.0937,-16.90625 6.6523,5.331383 16.7077,4.485972 23.375,-0.375 z m 218.625,22.125 c 7.6087,0.148739 11.5806,12.538373 4,15.9375 -7.2375,6.139969 -16.2951,9.566471 -25.3125,12.1875 1.4195,-7.857051 1.0196,-16.411073 3.8125,-23.8125 5.6305,-2.338122 11.395,-4.032393 17.5,-4.3125 z m -77.6563,17.90625 c 1.0476,2.360416 4.3559,4.918024 -0.5937,4.21875 -6.9009,1.605756 -4.7595,-0.670034 -0.7649,-3.647829 0.2784,-0.01715 1.2619,-1.52955 1.3586,-0.570921 z m -179.0312,2.46875 c 3.1082,7.143268 10.6542,13.392808 9.5695,21.652604 -3.1074,5.769075 -5.9806,13.805915 -12.8507,15.784896 -6.3639,-0.40118 -7.5557,-9.174367 -4.9441,-13.930274 2.4596,-7.834841 5.372,-16.074563 8.2253,-23.507226 z m 443.75,12.25 c -2.0067,8.673415 -4.4609,17.168058 -6.9375,25.6875 -1.165,-7.141189 -3.8329,-14.145033 -8.2187,-19.8125 5.1032,-1.831646 10.1618,-3.779385 15.1562,-5.875 z M 1419.7812,-31.875 c 4.3129,4.566676 11.3939,5.590815 16.7188,6.53125 4.3727,17.6188388 10.558,35.908294 7.0312,54.15625 -3.2724,3.810423 -10.0529,3.60651 -14.5312,6.40625 -3.9624,1.819529 -7.4818,4.851346 -9.25,8.90625 -12.1375,-17.96854 -21.4856,-38.5916829 -30.7812,-57.71875 11.2586,-4.249315 21.8639,-10.382254 30.8124,-18.28125 z m -195.75,2.375 c -5.5867,5.651227 -10.7177,11.904748 -15.0624,18.59375 0.7771,-6.562574 1.4306,-13.08824 2.375,-19.59375 4.6632,0.326609 9.3447,0.04731 14,-0.28125 l -0.7156,0.698537 z m 274.9376,0.25 c -1.4927,8.888633 4.3107,16.308959 8.125,23.625 2.1899,10.1983576 -5.0302,19.48675 -6.5969,29.364809 -1.9025,5.671474 -2.4704,13.222345 -4.2781,17.853941 -3.2738,-0.03876 -3.6134,-1.769822 -2.7171,-4.682934 2.0245,-22.102313 -3.3212,-43.8516523 -7.4079,-65.410816 4.3364,-0.336912 8.6374,-1.020845 12.9687,-1.40625 l -0.094,0.65625 z M 986.09375,16.84375 c 29.45125,3.974979 60.36915,6.915766 87.09375,19.84375 -1.7601,5.727197 -9.2578,7.911006 -14.0313,10.78125 -16.1696,7.799045 -32.0141,16.65532 -49.5587,20.668575 -25.90685,6.738937 -53.10612,9.096215 -79.75375,6.331425 -2.03017,-0.649261 -9.87879,-1.723921 -5.25,-3.71875 15.67953,-6.435433 32.84466,-6.538827 49.59361,-6.047914 9.27919,-0.523557 19.7747,0.06886 27.84384,-5.045836 9.5939,-8.180809 5.8224,-24.631333 -4.7187,-30.34375 -5.67176,-4.709683 -11.51429,-9.195917 -17.625,-13.3125 2.13542,0.28125 4.27083,0.5625 6.40625,0.84375 z M 1551,37.375 c 0.8946,11.675494 5.521,23.545373 14.5625,31.125 -6.7202,-0.997605 -16.2692,-2.103211 -19.1563,-9.25 -1.2247,-7.925577 2.4291,-15.411443 4.5313,-22.90625 l 0.061,0.998168 v 0.03308 z m -252.1875,3.34375 c -6.0198,3.561192 -14.127,5.638564 -21.2525,7.519472 -11.4063,2.566428 -24.0014,3.008969 -35.0288,-1.394472 18.6062,-2.651889 37.479,-4.889089 56.2813,-6.125 z"
           style="fill:#000000;fill-opacity:1;fill-rule:nonzero;stroke:none;stroke-width:3.50340104" />
      </g>
      <g
         transform="matrix(0.05836897,0,0,0.05836885,-52.290501,261.90314)"
         id="g974"
         style="display:inline;opacity:1;vector-effect:none;fill:#b769b5;fill-opacity:1;stroke:none;stroke-width:23.99290276;stroke-linecap:butt;stroke-linejoin:miter;stroke-miterlimit:4;stroke-dasharray:none;stroke-dashoffset:0;stroke-opacity:1;marker:none">
        <path
           style="vector-effect:none;fill:#b769b5;fill-opacity:1;fill-rule:nonzero;stroke:none;stroke-width:23.99290276;stroke-linecap:butt;stroke-linejoin:miter;stroke-miterlimit:4;stroke-dasharray:none;stroke-dashoffset:0;stroke-opacity:1;marker:none"
           d="m 1117.7707,35.604136 c -61.1078,1.685625 -119.79456,35.957591 -164.46004,76.563504 -14.69193,13.96092 -29.79248,29.85935 -34.44207,50.2287 -2.51549,10.98992 2.42042,22.61693 11.69921,28.8335 17.07417,12.473 39.0033,14.90891 59.23562,19.35307 44.06368,8.23321 81.26868,7.99866 123.42278,23.98546 5.8355,2.21308 14.0557,9.72747 12.5777,16.77612 -2.6181,12.48541 -6.6509,16.86855 -17.2049,22.14589 -33.6248,16.81343 -50.1358,26.20011 -87.3727,30.46567 -21.80254,1.99958 -54.82152,6.59352 -74.07202,-4.74089 -5.70498,-3.57174 -10.39449,-9.41496 -2.69059,-20.19856 7.7039,-10.7836 10.5172,-6.35039 21.49662,-11.78891 10.97942,-5.43852 56.34819,-2.82392 62.37759,-5.05204 0.017,-5.22377 -40.0933,-31.91729 -44.46254,-29.65489 -23.09173,6.00424 -48.01885,13.627 -63.76724,32.78978 -7.98209,9.56182 -13.56997,26.76979 -4.62575,36.01572 13.02957,15.00903 37.07891,20.98187 55.93619,22.1928 42.43944,1.58465 90.45354,-6.40785 129.76484,-21.39096 18.3916,-7.00974 34.4768,-18.46577 45.9322,-35.15522 5.984,-8.71816 4.0688,-23.97817 -3.8917,-31.51119 -12.7636,-12.07821 -30.0316,-17.80919 -46.4973,-21.87839 -47.5905,-11.76112 -91.6595,-16.99486 -138.46037,-32.11709 -7.91085,-2.89299 -13.72987,-5.11722 -13.49392,-15.12532 1.62266,-17.86848 8.14664,-28.78182 19.83531,-40.96657 41.51738,-39.360961 88.78378,-59.974818 146.44218,-62.925318 15.4661,0.03538 30.5622,-4.101162 43.181,5.787063 4.0116,3.011064 2.5324,6.254202 -0.7815,9.487692 -11.2073,11.727466 -26.1157,16.507723 -39.4745,25.454943 -22.1051,13.59763 -51.8483,16.08042 -76.8073,23.37856 -4.8125,2.92093 -18.8963,28.79166 -18.199,33.17137 21.6773,-2.48404 72.1912,-13.23675 91.1441,-23.15283 21.6534,-12.52194 43.0783,-25.82407 61.2741,-43.076177 7.2514,-7.469229 11.5092,-30.27123 4.0224,-38.30223 -12.9218,-15.78515 -38.6833,-19.364816 -57.6384,-19.593257 z"
           id="path948"
           inkscape:connector-curvature="0"
           sodipodi:nodetypes="cccccssscczzcccccssssccccccccccccc" />
        <path
           style="vector-effect:none;fill:#b769b5;fill-opacity:1;fill-rule:nonzero;stroke:none;stroke-width:23.99290276;stroke-linecap:butt;stroke-linejoin:miter;stroke-miterlimit:4;stroke-dasharray:none;stroke-dashoffset:0;stroke-opacity:1;marker:none"
           d="m 1174.5576,142.64827 c 3.0095,10.47782 18.4346,27.69173 12.6595,37.6078 -7.5771,13.01049 -12.1664,24.31135 -26.8457,27.91077 -8.5727,1.27076 -22.1127,-9.13736 -23.4633,-16.83276 -3.6256,-13.24245 7.9512,-35.43351 11.4802,-48.37583 -3.8783,-1.6038 -26.7223,1.49521 -29.7122,7.11685 -6.2801,19.56235 -4.3179,46.27897 8.8307,63.41882 10.5074,12.55586 36.5759,14.45557 48.7751,5.15387 19.0733,-12.17447 38.0688,-39.89824 31.0106,-69.39967 -7.0582,-29.50143 -33.2762,-11.74759 -32.7349,-6.59985 z"
           id="path950"
           inkscape:connector-curvature="0"
           sodipodi:nodetypes="cscccccczc" />
        <path
           style="vector-effect:none;fill:#b769b5;fill-opacity:1;fill-rule:nonzero;stroke:none;stroke-width:23.99290276;stroke-linecap:butt;stroke-linejoin:miter;stroke-miterlimit:4;stroke-dasharray:none;stroke-dashoffset:0;stroke-opacity:1;marker:none"
           d="m 1228.2757,81.89327 c -4.3159,2.30312 -17.7285,10.917951 -14.8799,16.525952 5.0706,21.478308 4.8176,45.733348 2.7248,67.634628 -3.3816,35.53343 -6.4957,37.18113 -11.0362,72.53423 -10.9258,50.24844 -40.9233,68.90391 -34.376,70.89494 5.5313,1.92896 47.0894,-8.66016 47.2362,-13.1417 6.3067,-28.5245 7.1393,-65.58405 11.5034,-94.4661 4.1277,-19.79501 12.4269,-125.936466 -1.1723,-119.98195 z"
           id="path952"
           inkscape:connector-curvature="0"
           sodipodi:nodetypes="cccccccc" />
        <path
           style="vector-effect:none;fill:#b769b5;fill-opacity:1;fill-rule:nonzero;stroke:none;stroke-width:23.99290276;stroke-linecap:butt;stroke-linejoin:miter;stroke-miterlimit:4;stroke-dasharray:none;stroke-dashoffset:0;stroke-opacity:1;marker:none"
           d="m 1251.2998,47.325259 c -24.9461,0.729997 -32.8903,1.094438 -54.9161,13.222569 -5.8676,3.928882 -14.7549,41.975492 -9.168,38.406054 27.9456,-17.196072 32.2239,-29.396628 50.8109,-31.035042 29.5909,-1.93103 57.4122,-0.370794 81.2961,18.000429 7.6331,6.253081 9.8884,21.924961 4.3628,31.334491 -9.3347,17.19437 -25.0998,20.13553 -43.1156,25.0116 -15.3162,3.86603 -32.3298,2.4075 -48.0449,1.17076 -5.7811,1.00473 -5.7936,21.20477 0.3703,22.94617 13.4026,3.78342 30.6094,1.23445 44.2597,-0.68512 22.3473,-4.1411 45.2184,-16.81625 60.3514,-34.31629 9.4831,-10.94943 17.7344,-31.25501 9.3426,-44.079884 -11.1233,-18.117403 -29.1573,-26.466263 -48.7659,-32.06965 -13.5097,-3.441814 -32.8346,-8.105509 -46.7833,-7.906087 z"
           id="path954"
           inkscape:connector-curvature="0"
           sodipodi:nodetypes="cccccccccccccc" />
        <path
           style="vector-effect:none;fill:#b769b5;fill-opacity:1;fill-rule:nonzero;stroke:none;stroke-width:23.99290276;stroke-linecap:butt;stroke-linejoin:miter;stroke-miterlimit:4;stroke-dasharray:none;stroke-dashoffset:0;stroke-opacity:1;marker:none"
           d="m 1324.5918,173.42463 c -31.7674,-0.29076 -57.5372,21.2566 -71.3801,49.33464 -8.8252,16.08594 -14.9298,37.27998 -5.1296,54.30915 9.8507,14.90909 25.3635,21.87171 41.849,20.89175 23.4615,-1.10393 54.6067,-1.83931 75.856,-11.84055 4.5749,-2.89402 10.2822,-23.0209 7.9887,-28.22184 -5.5543,-2.49799 -38.0602,16.6492 -43.5761,16.93598 -25.7206,7.98424 -31.0679,7.72939 -58.0151,2.37077 -9.3738,-2.3662 -10.2367,-15.52034 -8.2601,-24.95114 2.0937,-20.4676 10.7439,-35.89397 26.3844,-48.72467 16.3831,-12.46277 36.4094,-6.08658 56.6511,-3.0442 2.6624,-4.155 12.0617,-28.30332 5.8983,-29.31844 -4.9745,-0.44408 -23.206,2.10075 -28.2665,2.25855 z"
           id="path956"
           inkscape:connector-curvature="0"
           sodipodi:nodetypes="ccccccccccccc" />
        <path
           style="vector-effect:none;fill:#b769b5;fill-opacity:1;fill-rule:nonzero;stroke:none;stroke-width:23.99290276;stroke-linecap:butt;stroke-linejoin:miter;stroke-miterlimit:4;stroke-dasharray:none;stroke-dashoffset:0;stroke-opacity:1;marker:none"
           d="m 1262.4342,233.95587 c -5.479,3.98365 -11.7042,20.13882 -4.8533,16.35536 28.3478,-7.15772 50.6733,-8.82387 82.5019,-11.3265 4.3917,-0.82181 10.4922,-22.18902 5.8957,-25.93418 -25.6903,7.11592 -26.2477,2.39288 -83.5443,20.90532 z"
           id="path958"
           inkscape:connector-curvature="0"
           sodipodi:nodetypes="ccccc" />
        <path
           style="vector-effect:none;fill:#b769b5;fill-opacity:1;fill-rule:nonzero;stroke:none;stroke-width:23.99290276;stroke-linecap:butt;stroke-linejoin:miter;stroke-miterlimit:4;stroke-dasharray:none;stroke-dashoffset:0;stroke-opacity:1;marker:none"
           d="m 1366.1543,133.03171 c 2.8068,34.13048 -5.2436,75.40711 -15.6509,120.37597 0.4474,4.8512 20.9949,-4.97799 24.4049,-9.85393 4.7995,-5.50726 0.4992,-32.95497 2.3394,-39.47297 -2.2352,-22.97474 9.5997,-59.3819 6.6712,-90.51797 11.856,15.97249 -16.5917,6.10164 -17.7646,19.4689 z"
           id="path960"
           inkscape:connector-curvature="0"
           sodipodi:nodetypes="cccccc" />
        <path
           style="vector-effect:none;fill:#b769b5;fill-opacity:1;fill-rule:nonzero;stroke:none;stroke-width:23.99290276;stroke-linecap:butt;stroke-linejoin:miter;stroke-miterlimit:4;stroke-dasharray:none;stroke-dashoffset:0;stroke-opacity:1;marker:none"
           d="m 1406.5819,99.400308 c -18.758,0.702262 -37.0962,4.119432 -50.2109,17.958232 3.4111,3.19771 -5.097,32.25137 0.191,28.18713 13.2214,-9.89734 46.0951,-29.91458 62.5437,-27.54225 14.2622,1.83499 23.4413,10.79664 23.4884,26.48516 -0.9194,15.11394 -15.2202,21.93831 -27.6424,27.85382 -11.3052,5.8694 -27.4267,8.09646 -39.3824,12.09611 -2.9572,2.17473 -3.9606,13.46434 -2.3763,15.71161 2.8335,1.60063 12.4654,0.2675 15.0886,2.00826 15.1623,14.02506 17.3091,38.2219 28.6598,55.07362 16.1867,27.13136 39.1463,53.54077 58.4877,62.31502 19.3414,8.77426 35.2531,3.96564 48.8058,-5.822 13.5527,-9.78765 12.2489,-7.89064 10.2422,-22.72978 -2.0067,-14.83914 -7.3833,-22.89498 -7.0755,-18.62488 -12.1708,11.88214 -27.4071,39.08538 -42.7817,31.5906 -24.1718,-10.33813 -35.2499,-26.66113 -49.4481,-47.83056 -11.9194,-18.60812 -20.409,-46.79699 -35.0819,-63.46894 20.7636,-7.24407 43.4853,-12.29992 53.5187,-33.10545 6.9771,-15.35852 7.4341,-40.02546 -5.7386,-50.1488 -10.5308,-8.93483 -27.6425,-10.22801 -41.2881,-10.006902 z"
           id="path962"
           inkscape:connector-curvature="0"
           sodipodi:nodetypes="cccccccccczzzccccccc" />
        <path
           style="vector-effect:none;fill:#b769b5;fill-opacity:1;fill-rule:nonzero;stroke:none;stroke-width:23.99290276;stroke-linecap:butt;stroke-linejoin:miter;stroke-miterlimit:4;stroke-dasharray:none;stroke-dashoffset:0;stroke-opacity:1;marker:none"
           d="m 1499.9812,77.234341 c -17.9037,9.744126 -23.9159,35.560689 -22.674,54.849839 3.1703,39.81318 24.1643,77.51847 18.8324,118.0856 -1.2452,8.0902 -16.2465,11.67632 -24.5628,14.24292 -5.2173,2.37598 7.5798,20.9862 12.8687,22.26798 10.1396,2.70798 21.2971,-8.92561 24.9001,-17.23138 9.2612,-20.66671 3.4985,-48.09314 -0.3937,-69.44622 -5.1343,-25.63903 -11.1229,-50.49934 -10.768,-76.9015 0.5746,-12.82624 19.5426,-34.553549 30.387,-42.048722 -3.7015,-2.018858 -23.3428,-4.261776 -28.5897,-3.818517 z"
           id="path964"
           inkscape:connector-curvature="0"
           sodipodi:nodetypes="cccccccccc" />
        <path
           style="vector-effect:none;fill:#b769b5;fill-opacity:1;fill-rule:nonzero;stroke:none;stroke-width:23.99290276;stroke-linecap:butt;stroke-linejoin:miter;stroke-miterlimit:4;stroke-dasharray:none;stroke-dashoffset:0;stroke-opacity:1;marker:none"
           d="m 1729.5582,34.535285 c -28.6636,17.191302 -80.4567,37.505518 -113.3442,39.449715 -59.6381,2.267519 -107.2004,-11.406462 -175.6087,-17.863225 -17.8954,-0.07196 -64.0451,5.615465 -79.656,15.064563 -3.7346,5.296464 28.368,22.166366 33.4849,17.12537 30.9177,-9.828782 66.3263,-11.871172 98.0727,-8.374007 58.1967,7.63782 109.5492,18.335885 167.8768,6.379415 15.609,-3.221009 45.0727,-6.941887 57.0636,-17.913997 3.6044,-5.39055 16.9514,-34.7831 12.1109,-33.867834 z"
           id="path966"
           inkscape:connector-curvature="0"
           sodipodi:nodetypes="ccccccccc" />
        <path
           style="vector-effect:none;fill:#b769b5;fill-opacity:1;fill-rule:nonzero;stroke:none;stroke-width:23.99290276;stroke-linecap:butt;stroke-linejoin:miter;stroke-miterlimit:4;stroke-dasharray:none;stroke-dashoffset:0;stroke-opacity:1;marker:none"
           d="m 1615.8835,111.49337 c -4.7077,1.40405 -14.9703,13.79856 -35.4273,23.53067 -20.457,9.73211 -33.1842,17.95645 -64.8493,17.80956 -31.6652,-0.14689 -49.2852,-7.03858 -49.0545,-1.44431 -1.4608,5.59765 -2.4879,22.25954 2.9843,21.25643 36.976,-0.92135 81.5336,-3.16785 105.8999,-12.30386 24.3662,-9.13601 38.1412,-12.47789 39.5933,-19.2606 1.4521,-6.78271 5.5612,-30.99194 0.8536,-29.58789 z"
           id="path968"
           inkscape:connector-curvature="0"
           sodipodi:nodetypes="zzzcczzz" />
        <path
           style="vector-effect:none;fill:#b769b5;fill-opacity:1;fill-rule:nonzero;stroke:none;stroke-width:23.99290276;stroke-linecap:butt;stroke-linejoin:miter;stroke-miterlimit:4;stroke-dasharray:none;stroke-dashoffset:0;stroke-opacity:1;marker:none"
           d="m 1551.8596,191.33039 c 6.7621,11.48126 10.4071,17.31967 7.3312,29.20635 -6.4964,21.52666 -15.2123,42.38823 -8.899,65.24589 5.7537,17.57193 21.0503,29.18596 38.997,32.38709 21.1706,4.31123 50.0016,5.79966 69.0811,-4.4367 -0.1306,-4.67371 22.6286,-30.75101 18.3448,-28.94108 -11.1779,1.77325 -35.4141,13.91758 -60.4745,15.13124 -15.8353,-0.87259 -32.169,-0.83385 -43.9565,-11.59284 -9.8699,-11.87587 -5.4556,-23.54069 -2.0498,-36.73343 5.868,-20.84644 16.4231,-37.17513 11.7063,-59.35924 -5.5805,-29.316 -36.8978,-8.62184 -30.0806,-0.90728 z"
           id="path970"
           inkscape:connector-curvature="0"
           sodipodi:nodetypes="ccccccccccc" />
        <path
           style="vector-effect:none;fill:#b769b5;fill-opacity:1;fill-rule:nonzero;stroke:none;stroke-width:23.99290276;stroke-linecap:butt;stroke-linejoin:miter;stroke-miterlimit:4;stroke-dasharray:none;stroke-dashoffset:0;stroke-opacity:1;marker:none"
           d="m 1721.9936,102.57703 c -2.7686,7.47817 10.6842,23.37568 7.2906,55.59846 -3.3935,32.22278 -0.7068,37.17033 -20.1282,62.32388 -16.0012,20.74804 -28.9347,32.42561 -54.0698,39.25071 -9.1808,2.14213 -24.1598,4.75104 -30.7927,-3.17492 -7.8249,-13.14645 1.734,-27.30582 3.7587,-41.24357 6.2965,-29.64602 18.7737,-60.60754 22.1558,-77.42634 3.382,-16.8188 14.2438,-34.09216 14.4242,-38.178515 -4.6965,-0.473719 -34.5778,6.559015 -34.4973,13.361205 -3.1524,24.07475 -7.5604,53.7259 -14.1969,76.96504 -6.6372,21.4033 -16.4563,48.8342 -10.827,71.24869 4.5406,13.90405 22.4002,17.46103 36.5366,16.2135 23.5521,-1.01872 44.9666,-13.0823 63.6158,-26.46863 21.7611,-16.12055 36.3825,-37.0916 39.9488,-64.33071 4.0767,-24.12486 6.2429,-85.64134 1.8761,-109.596561 -5.2203,-16.25486 -25.0228,19.087311 -25.0947,25.457761 z"
           id="path972"
           inkscape:connector-curvature="0"
           sodipodi:nodetypes="czcccczccccccccc" />
      </g>
    </g>
  </g>
</svg>
